<svg width="23" height="24" viewBox="0 0 23 24" fill="none" xmlns="http://www.w3.org/2000/svg">
<circle cx="11.3208" cy="12.6792" r="11.3208" fill="#013A4D"/>
<path d="M8.64348 14.8114H8.64401C8.64444 14.8114 8.64487 14.8113 8.64531 14.8113H14.6831C14.8317 14.8113 14.9624 14.7127 15.0033 14.5698L16.3354 9.90753C16.3641 9.80702 16.3439 9.69896 16.2811 9.61553C16.2181 9.5321 16.1197 9.48302 16.0152 9.48302H7.87546L7.6374 8.41172C7.60349 8.25934 7.46838 8.15094 7.31227 8.15094H5.31416C5.13022 8.15094 4.98114 8.30002 4.98114 8.48396C4.98114 8.6679 5.13022 8.81698 5.31416 8.81698H7.04517C7.08731 9.00682 8.18437 13.9437 8.2475 14.2277C7.89358 14.3815 7.64529 14.7344 7.64529 15.1443C7.64529 15.6952 8.09348 16.1434 8.64435 16.1434H14.6831C14.867 16.1434 15.0161 15.9943 15.0161 15.8104C15.0161 15.6264 14.867 15.4774 14.6831 15.4774H8.64435C8.46076 15.4774 8.31133 15.3279 8.31133 15.1443C8.31133 14.961 8.46024 14.8118 8.64348 14.8114ZM15.5737 10.1491L14.4319 14.1453H8.91146L8.02341 10.1491H15.5737Z" fill="white"/>
<path d="M8.31133 17.1425C8.31133 17.6934 8.75951 18.1415 9.31038 18.1415C9.86125 18.1415 10.3094 17.6934 10.3094 17.1425C10.3094 16.5916 9.86125 16.1434 9.31038 16.1434C8.75951 16.1434 8.31133 16.5916 8.31133 17.1425ZM9.31038 16.8095C9.49398 16.8095 9.6434 16.9589 9.6434 17.1425C9.6434 17.3261 9.49398 17.4755 9.31038 17.4755C9.12679 17.4755 8.97736 17.3261 8.97736 17.1425C8.97736 16.9589 9.12679 16.8095 9.31038 16.8095Z" fill="white"/>
<path d="M13.018 17.1425C13.018 17.6934 13.4662 18.1415 14.0171 18.1415C14.5679 18.1415 15.0161 17.6934 15.0161 17.1425C15.0161 16.5916 14.5679 16.1434 14.0171 16.1434C13.4662 16.1434 13.018 16.5916 13.018 17.1425ZM14.0171 16.8095C14.2007 16.8095 14.3501 16.9589 14.3501 17.1425C14.3501 17.3261 14.2007 17.4755 14.0171 17.4755C13.8335 17.4755 13.684 17.3261 13.684 17.1425C13.684 16.9589 13.8335 16.8095 14.0171 16.8095Z" fill="white"/>
<circle cx="17.2076" cy="4.07547" r="3.32547" fill="#24FF00" stroke="white" stroke-width="1.5"/>
</svg>
