<svg width="18" height="16" viewBox="0 0 18 16" fill="none" xmlns="http://www.w3.org/2000/svg">
<path d="M5.52162 10.0418H5.5224C5.52306 10.0418 5.52371 10.0417 5.52437 10.0417H14.6274C14.8515 10.0417 15.0485 9.89302 15.1101 9.67755L17.1185 2.64836C17.1617 2.49682 17.1314 2.33391 17.0366 2.20813C16.9417 2.08234 16.7933 2.00834 16.6357 2.00834H4.36369L4.00478 0.393169C3.95365 0.163439 3.74994 0 3.51459 0H0.502084C0.224761 0 0 0.224761 0 0.502084C0 0.779408 0.224761 1.00417 0.502084 1.00417H3.11188C3.17542 1.29038 4.82942 8.73352 4.92461 9.16173C4.39102 9.39368 4.01667 9.92571 4.01667 10.5438C4.01667 11.3743 4.6924 12.05 5.52293 12.05H14.6274C14.9047 12.05 15.1295 11.8253 15.1295 11.5479C15.1295 11.2706 14.9047 11.0459 14.6274 11.0459H5.52293C5.24613 11.0459 5.02084 10.8206 5.02084 10.5438C5.02084 10.2674 5.24534 10.0425 5.52162 10.0418V10.0418ZM15.9701 3.01251L14.2486 9.03752H5.92564L4.58675 3.01251H15.9701Z" fill="#8E99AF"/>
<path d="M5.02084 13.5563C5.02084 14.3868 5.69656 15.0625 6.5271 15.0625C7.35763 15.0625 8.03335 14.3868 8.03335 13.5563C8.03335 12.7257 7.35763 12.05 6.5271 12.05C5.69656 12.05 5.02084 12.7257 5.02084 13.5563ZM6.5271 13.0542C6.8039 13.0542 7.02918 13.2795 7.02918 13.5563C7.02918 13.8331 6.8039 14.0584 6.5271 14.0584C6.2503 14.0584 6.02501 13.8331 6.02501 13.5563C6.02501 13.2795 6.2503 13.0542 6.5271 13.0542Z" fill="#8E99AF"/>
<path d="M12.117 13.5563C12.117 14.3868 12.7927 15.0625 13.6232 15.0625C14.4538 15.0625 15.1295 14.3868 15.1295 13.5563C15.1295 12.7257 14.4538 12.05 13.6232 12.05C12.7927 12.05 12.117 12.7257 12.117 13.5563ZM13.6232 13.0542C13.9 13.0542 14.1253 13.2795 14.1253 13.5563C14.1253 13.8331 13.9 14.0584 13.6232 14.0584C13.3464 14.0584 13.1211 13.8331 13.1211 13.5563C13.1211 13.2795 13.3464 13.0542 13.6232 13.0542Z" fill="#8E99AF"/>
</svg>
