<svg width="89" height="10" viewBox="0 0 89 10" fill="none" xmlns="http://www.w3.org/2000/svg">
<path fill-rule="evenodd" clip-rule="evenodd" d="M1.02058 10H2.9831V4.95728H4.35232L4.49828 3.26916H2.9831C2.9831 3.26916 2.9831 2.63881 2.9831 2.30762C2.9831 1.90951 3.06125 1.75202 3.43623 1.75202C3.73798 1.75202 4.49828 1.75202 4.49828 1.75202V0C4.49828 0 3.3785 0 3.13933 0C1.67898 0 1.02058 0.659713 1.02058 1.92307C1.02058 3.02336 1.02058 3.26916 1.02058 3.26916H0V4.9787H1.02058V10Z" fill="white"/>
<path fill-rule="evenodd" clip-rule="evenodd" d="M21.7898 8.86559C20.4067 8.70754 24.3141 10 25.7864 10C30.6273 10 33.362 6.04122 33.1973 2.49053C33.7066 2.13469 34.1488 1.69001 34.4983 1.18369C34.0304 1.38445 33.528 1.52028 33.0006 1.58115C33.5389 1.2691 33.9524 0.774156 34.147 0.184567C33.6432 0.473935 33.0851 0.684092 32.4915 0.797302C32.016 0.306482 31.3384 0 30.5883 0C28.9056 0 27.6684 1.52058 28.0484 3.09991C25.8815 2.99449 23.9603 1.98947 22.6747 0.462177C21.9917 1.59682 22.3204 3.08127 23.4816 3.83243C23.0541 3.81944 22.6519 3.70569 22.3002 3.51677C22.2722 4.68634 23.1377 5.77988 24.3916 6.02404C24.0248 6.12067 23.6228 6.14275 23.2145 6.0672C23.5459 7.07014 24.509 7.79969 25.6498 7.82016C24.5538 8.65215 23.173 9.02364 21.7898 8.86559Z" fill="white"/>
<path fill-rule="evenodd" clip-rule="evenodd" d="M58.2792 3.2596C57.8173 2.79095 57.1757 2.49993 56.4657 2.49993C55.7556 2.49993 55.1141 2.79095 54.6524 3.2596H51.4983V1.96742C51.4983 1.30415 51.8269 0.718262 52.3295 0.361844V2.48046H52.7329V0.141572C52.8243 0.104908 52.9193 0.0748532 53.0169 0.052105V2.48046H53.4203V0.00101008C53.4264 0.000907193 53.4325 0.000725638 53.4385 0.000544557C53.4476 0.00027174 53.4566 0 53.4659 0H53.6989V2.48046H54.1022V0H59.4787C60.5651 0 61.4461 0.880938 61.4459 1.96742V3.2596H58.2792ZM59.1677 0.822597C58.9933 0.822597 58.852 0.963922 58.852 1.13806V2.22541C58.852 2.39957 58.9933 2.54088 59.1677 2.54088H60.2311C60.4056 2.54088 60.5469 2.39957 60.5469 2.22541V1.13806C60.5469 0.963922 60.4056 0.822597 60.2311 0.822597H59.1677ZM57.2745 3.25959C57.4509 3.33998 57.6131 3.44533 57.7571 3.57134C58.1671 3.93123 58.4267 4.45839 58.4267 5.04536C58.4267 6.12685 57.5471 7.00653 56.4657 7.00653C55.3845 7.00653 54.5048 6.12685 54.5048 5.04536C54.5048 4.45839 54.7644 3.93123 55.1745 3.57134C55.3182 3.44533 55.4806 3.33998 55.6568 3.25959C55.9037 3.14756 56.1775 3.08437 56.4657 3.08437C56.7541 3.08437 57.0279 3.14756 57.2745 3.25959ZM55.0229 5.04536C55.0229 5.84584 55.6717 6.49473 56.4721 6.49473C57.2726 6.49473 57.9214 5.84584 57.9214 5.04536C57.9214 4.24506 57.2726 3.59629 56.4721 3.59629C55.6717 3.59629 55.0229 4.24506 55.0229 5.04536ZM59.4787 10H53.4659C52.3794 10 51.4983 9.11912 51.4983 8.03265V3.57135H54.3913C54.0951 3.98744 53.9203 4.49583 53.9203 5.04536C53.9203 6.45133 55.0601 7.59104 56.4657 7.59104C57.8715 7.59104 59.0112 6.45133 59.0112 5.04536C59.0112 4.49583 58.8363 3.98744 58.5402 3.57135H61.4461V8.03265C61.4461 9.11912 60.5654 10 59.4787 10Z" fill="white"/>
<path fill-rule="evenodd" clip-rule="evenodd" d="M79.6659 2.46035C80.3397 2.46035 80.8859 1.90936 80.8859 1.23021C80.8859 0.550751 80.3397 0 79.6659 0C78.9923 0 78.4461 0.550751 78.4461 1.23021C78.4461 1.90936 78.9923 2.46035 79.6659 2.46035ZM78.6445 10H80.7073V3.33326H78.6445V10ZM85.2616 5.00501C84.4361 5.00501 84.0047 5.56313 84.0047 6.50054V10H82.0261V3.33326H84.0047V4.23129C84.0047 4.23129 84.5998 3.12986 86.0129 3.12986C87.4262 3.12986 88.4377 3.99312 88.4377 5.7788V10H86.3848V6.50054C86.3848 5.54063 86.0204 5.00501 85.2616 5.00501Z" fill="white"/>
</svg>
